:SAMPLES-PER-SECOND 30
:FULLY-SPECIFIED
:DEGREES
82
root  22.554 39.4931 -7.72229 -71.2774 -89.1827 71.494
RightUpLeg  10.0424 -9.4305 -3.42266
RightLeg  9.06743 -2.75216 5.23618
RightFoot  -17.8586 -0.0134695 1.89374
RightToes  1.16414e-010 0 -3.6325e-017
Spine  5.49556 2.10143 13.2022
Spine1  6.93043 5.07565 -10.0509
HEad  -12.7784 -0.260877 -6.23204
LeftShoulder1  9.0882 -12.6451 -49.1304
LeftArm  -1.04204 30.1633 -23.0457
LeftForeArm  23.312 -32.0244 -5.7284
LeftHand  -0.244104 0.0205437 5.32207
RightShoulder  6.09911 9.60834 40.3567
RightArm  -1.1124 5.46105 31.1383
RightForeArm  6.44711 57.5194 17.3837
RightHand  -0.855043 -0.13491 -18.8526
LeftUpLeg  -26.3661 12.0451 -4.93259
LeftLeg  23.8031 2.49286 1.53686
LeftFoot  -2.07141 0.283714 -3.35699
LeftToes  -6.73059e-011 1.31891e-010 -1.28765e-011
83
root  20.9303 39.2227 -7.7622 -105.417 -88.7232 105.954
RightUpLeg  12.1549 -10.0812 -4.58638
RightLeg  9.67336 -1.20337 5.19266
RightFoot  -18.7544 0.0146613 2.20149
RightToes  1.16414e-010 0 -3.6325e-017
Spine  5.9361 2.37509 12.6749
Spine1  6.83573 5.64225 -11.2488
HEad  -14.4041 -0.211962 -5.67113
LeftShoulder1  9.03235 -12.634 -48.8613
LeftArm  -4.37355 33.5716 -22.4922
LeftForeArm  24.4795 -37.5749 -7.11939
LeftHand  -0.244104 0.0205437 5.32207
RightShoulder  6.22467 9.8193 40.5514
RightArm  -0.926554 5.4808 30.9512
RightForeArm  8.82617 61.1529 20.1559
RightHand  -0.807064 -0.429959 -18.8341
LeftUpLeg  -27.1337 14.9379 -7.49661
LeftLeg  18.4048 1.54736 0.885626
LeftFoot  -2.57236 0.315602 -3.90416
LeftToes  -6.73059e-011 1.31891e-010 -1.28765e-011
84
root  19.203 38.9097 -7.77155 -114.963 -88.3026 115.736
RightUpLeg  13.7943 -11.803 -5.76631
RightLeg  11.8466 1.29348 4.57372
RightFoot  -19.619 0.0586078 2.60347
RightToes  1.16414e-010 0 -3.6325e-017
Spine  6.07557 2.56946 11.9806
Spine1  7.13619 6.06387 -12.0062
HEad  -16.1394 -0.283632 -4.99301
LeftShoulder1  8.95779 -12.5672 -48.6581
LeftArm  -8.1067 36.0788 -22.5477
LeftForeArm  26.5979 -43.0993 -8.68055
LeftHand  -0.244104 0.0205437 5.32207
RightShoulder  6.3476 9.98213 40.8788
RightArm  -0.389245 4.50001 30.8208
RightForeArm  11.042 63.623 22.4589
RightHand  -0.835237 -0.270345 -18.894
LeftUpLeg  -27.7859 15.3824 -9.14081
LeftLeg  17.4359 1.95311 1.0135
LeftFoot  -2.03079 0.179009 -2.1105
LeftToes  -6.73059e-011 1.31891e-010 -1.28765e-011
85
root  17.3924 38.576 -7.74474 -117.304 -87.9872 118.295
RightUpLeg  14.7037 -14.5011 -7.13667
RightLeg  15.827 5.27637 3.4862
RightFoot  -20.3763 0.304147 5.53326
RightToes  1.16414e-010 0 -3.6325e-017
Spine  6.24152 2.69919 10.9871
Spine1  7.34867 6.35428 -12.5231
HEad  -17.6757 -0.469593 -3.955
LeftShoulder1  8.87695 -12.438 -48.6086
LeftArm  -11.5302 37.4988 -22.9584
LeftForeArm  29.0852 -48.3767 -10.4515
LeftHand  -0.244104 0.0205437 5.32207
RightShoulder  6.47754 10.0612 41.5204
RightArm  0.444097 1.99167 30.5841
RightForeArm  12.9441 64.8068 23.632
RightHand  -0.875044 0.0461276 -18.6665
LeftUpLeg  -28.3273 12.5738 -9.43726
LeftLeg  20.9458 4.23339 2.14
LeftFoot  -1.51541 -0.182684 2.28226
LeftToes  -6.73059e-011 1.31891e-010 -1.28765e-011
86
root  15.5411 38.2267 -7.69843 -121.912 -87.3483 122.961
RightUpLeg  13.1223 -13.8278 -7.90983
RightLeg  23.9747 6.79076 2.79127
RightFoot  -18.4111 0.516365 10.7518
RightToes  1.16414e-010 0 -3.6325e-017
Spine  7.15336 2.85596 9.44473
Spine1  6.78103 6.55781 -12.859
HEad  -19.0661 -0.588514 -2.49081
LeftShoulder1  8.82002 -12.3348 -48.6113
LeftArm  -14.4798 37.8825 -23.5011
LeftForeArm  31.1955 -53.3369 -12.5465
LeftHand  -0.244104 0.0205437 5.32207
RightShoulder  6.64449 10.1559 42.3516
RightArm  1.59925 -1.80232 30.4782
RightForeArm  13.1132 63.9583 22.6222
RightHand  -0.955195 0.627913 -18.4384
LeftUpLeg  -28.5981 8.73603 -9.23233
LeftLeg  27.0283 7.09015 4.26415
LeftFoot  -3.19503 -0.402098 5.9481
LeftToes  -6.73059e-011 1.31891e-010 -1.28765e-011
87
root  13.7047 37.8985 -7.67231 -127.301 -85.9589 128.084
RightUpLeg  7.76343 -8.06267 -8.08777
RightLeg  37.4521 3.91015 2.95613
RightFoot  -9.98895 -0.228515 14.3436
RightToes  1.16414e-010 0 -3.6325e-017
Spine  8.97808 3.02673 6.84427
Spine1  5.67933 6.58325 -12.6178
HEad  -20.7607 -0.386631 -1.20171
LeftShoulder1  8.8559 -12.3659 -48.7136
LeftArm  -17.0683 37.1159 -24.0327
LeftForeArm  33.6601 -58.1198 -15.1177
LeftHand  -0.244104 0.0205437 5.32207
RightShoulder  6.8528 10.3649 43.0647
RightArm  3.08802 -5.82831 30.7839
RightForeArm  10.9593 60.6889 19.5577
RightHand  -1.11531 1.53282 -18.7402
LeftUpLeg  -28.0773 6.61344 -9.61624
LeftLeg  33.0806 9.22051 6.75716
LeftFoot  -7.48825 -0.183776 6.57087
LeftToes  -6.73059e-011 1.31891e-010 -1.28765e-011
88
root  11.9798 37.5318 -7.69379 -125.643 -84.108 125.871
RightUpLeg  -0.130722 -3.50636 -9.24324
RightLeg  53.209 2.30567 2.94771
RightFoot  2.48492 -1.68596 14.1476
RightToes  1.16414e-010 0 -3.6325e-017
Spine  11.1843 3.05035 2.60713
Spine1  5.07894 6.01711 -11.2001
HEad  -23.0618 0.242712 -0.94646
LeftShoulder1  9.02068 -12.4989 -49.2093
LeftArm  -18.3963 34.751 -24.077
LeftForeArm  38.0027 -63.0147 -18.5093
LeftHand  -0.244104 0.0205437 5.32207
RightShoulder  7.09563 10.6455 43.7423
RightArm  4.70606 -9.59669 30.8648
RightForeArm  8.0838 56.5608 16.5378
RightHand  -1.3289 2.49259 -19.6183
LeftUpLeg  -26.7839 6.7915 -10.9635
LeftLeg  37.858 9.85373 8.4779
LeftFoot  -12.681 0.140724 5.56643
LeftToes  -6.73059e-011 1.31891e-010 -1.28765e-011
89
root  10.3359 37.1515 -7.73474 -117.032 -83.0261 116.775
RightUpLeg  -8.40802 -1.20673 -10.5214
RightLeg  67.0142 1.09154 2.08666
RightFoot  10.01 -2.18021 11.8758
RightToes  1.16414e-010 0 -3.6325e-017
Spine  12.8449 2.64704 -2.20138
Spine1  5.2747 4.43207 -8.46635
HEad  -25.6218 1.07923 -1.81806
LeftShoulder1  9.20088 -12.579 -49.9419
LeftArm  -16.9549 30.6509 -23.1946
LeftForeArm  45.1513 -68.2992 -23.7709
LeftHand  -0.244104 0.0205437 5.32207
RightShoulder  7.30434 10.8025 44.5772
RightArm  5.91129 -14.315 29.6768
RightForeArm  6.22631 55.0374 15.6855
RightHand  -1.58425 3.39453 -20.9629
LeftUpLeg  -25.0486 7.88597 -12.3341
LeftLeg  41.2238 8.89589 8.64972
LeftFoot  -17.123 0.351762 4.88039
LeftToes  -6.73059e-011 1.31891e-010 -1.28765e-011
90
root  8.56259 37.1405 -7.71903 -101.318 -83.4374 101.066
RightUpLeg  -15.6679 -1.84421 -10.7673
RightLeg  76.1048 0.114541 -0.732027
RightFoot  10.378 -1.59253 8.59172
RightToes  1.16414e-010 0 -3.6325e-017
Spine  13.3663 1.43611 -5.15088
Spine1  5.54198 2.06072 -5.05943
HEad  -27.5894 1.95004 -3.01387
LeftShoulder1  9.20174 -12.5206 -50.1262
LeftArm  -12.9313 25.7589 -21.9337
LeftForeArm  57.3714 -74.1659 -34.2775
LeftHand  -0.244104 0.0205437 5.32207
RightShoulder  7.2633 10.6004 44.9783
RightArm  6.59155 -21.5466 27.3462
RightForeArm  6.27263 58.6729 18.3761
RightHand  -1.85057 4.09796 -22.6336
LeftUpLeg  -21.9788 8.17734 -12.396
LeftLeg  41.574 7.48171 7.46777
LeftFoot  -19.9278 0.464394 4.59097
LeftToes  -6.73059e-011 1.31891e-010 -1.28765e-011
91
root  6.635 37.5797 -7.6276 -82.9673 -84.5524 83.1124
RightUpLeg  -21.6463 -3.5237 -9.59129
RightLeg  79.5427 -0.386333 -4.32401
RightFoot  7.12325 -0.817188 5.32114
RightToes  1.16414e-010 0 -3.6325e-017
Spine  13.0229 -0.153924 -5.6091
Spine1  5.41793 -0.238816 -2.23572
HEad  -28.246 3.19296 -3.9153
LeftShoulder1  8.94623 -12.3429 -49.2815
LeftArm  -8.53911 21.7447 -21.5279
LeftForeArm  84.0832 -79.5863 -59.9232
LeftHand  -0.244104 0.0205437 5.32207
RightShoulder  6.77056 9.94973 43.894
RightArm  7.9001 -30.7517 25
RightForeArm  10.2655 66.2701 26.2262
RightHand  -1.97501 4.16704 -23.9494
LeftUpLeg  -17.3258 7.41137 -11.0452
LeftLeg  38.5812 6.94744 6.28667
LeftFoot  -21.5021 0.490108 4.05918
LeftToes  -6.73059e-011 1.31891e-010 -1.28765e-011
